<svg width="321" height="33" viewBox="0 0 321 33" fill="none" xmlns="http://www.w3.org/2000/svg">
<path fill-rule="evenodd" clip-rule="evenodd" d="M114.054 11.9435C114.054 13.1999 115.072 14.2185 116.329 14.2185L161.26 14.2185C162.517 14.2185 163.535 13.1999 163.535 11.9435C163.535 10.687 162.517 9.66846 161.26 9.66846L116.329 9.66846C115.072 9.66846 114.054 10.687 114.054 11.9435Z" fill="#ED8A99"/>
<path fill-rule="evenodd" clip-rule="evenodd" d="M114.054 21.0436C114.054 22.3 115.072 23.3186 116.329 23.3186L161.26 23.3186C162.517 23.3186 163.535 22.3 163.535 21.0436C163.535 19.7871 162.517 18.7686 161.26 18.7686L116.329 18.7686C115.072 18.7686 114.054 19.7871 114.054 21.0436Z" fill="#ED8A99"/>
<path fill-rule="evenodd" clip-rule="evenodd" d="M163.82 30.7128C163.82 29.4563 162.801 28.4378 161.545 28.4378L118.32 28.4378C111.723 28.4378 106.376 23.0903 106.376 16.4939C106.376 9.89755 111.723 4.55012 118.32 4.55012L161.545 4.55011C162.801 4.55011 163.82 3.53156 163.82 2.2751C163.82 1.01864 162.801 8.78716e-05 161.545 8.80364e-05L118.32 9.37047e-05C109.21 9.48992e-05 101.826 7.38464 101.826 16.4939C101.826 25.6033 109.21 32.9878 118.32 32.9878L161.545 32.9878C162.801 32.9878 163.82 31.9692 163.82 30.7128Z" fill="#ED8A99"/>
<path d="M0.694204 26.4312C0.50137 26.4312 0.33746 26.3734 0.202476 26.2577C0.0674919 26.1227 0 25.9491 0 25.737V6.90672C0 6.69461 0.0674919 6.52105 0.202476 6.38607C0.33746 6.25109 0.50137 6.18359 0.694204 6.18359H3.3264C3.53851 6.18359 3.70242 6.25109 3.81812 6.38607C3.95311 6.52105 4.0206 6.69461 4.0206 6.90672V14.3694H6.53709L11.2519 6.70425C11.3483 6.54998 11.4737 6.42464 11.6279 6.32822C11.8015 6.2318 12.0232 6.18359 12.2932 6.18359H15.1568C15.3496 6.18359 15.4943 6.24144 15.5907 6.35715C15.7064 6.47285 15.7642 6.61747 15.7642 6.79102C15.7642 6.88744 15.7257 7.00314 15.6485 7.13812L10.1817 15.9603L16.1692 25.4478C16.227 25.5056 16.256 25.6117 16.256 25.7659C16.256 25.9395 16.1885 26.0938 16.0535 26.2287C15.9378 26.3637 15.7835 26.4312 15.5907 26.4312H12.6114C12.3607 26.4312 12.1679 26.3734 12.0329 26.2577C11.9172 26.142 11.8208 26.0359 11.7436 25.9395L6.68172 17.9851H4.0206V25.737C4.0206 25.9298 3.95311 26.0938 3.81812 26.2287C3.70242 26.3637 3.53851 26.4312 3.3264 26.4312H0.694204Z" fill="#464646"/>
<path d="M19.2041 26.4312C19.0112 26.4312 18.8473 26.3734 18.7123 26.2577C18.5773 26.1227 18.5099 25.9491 18.5099 25.737V6.90672C18.5099 6.69461 18.5773 6.52105 18.7123 6.38607C18.8473 6.25109 19.0112 6.18359 19.2041 6.18359H21.8362C22.0484 6.18359 22.2123 6.25109 22.328 6.38607C22.463 6.52105 22.5305 6.69461 22.5305 6.90672V14.3694H31.0634V6.90672C31.0634 6.69461 31.1309 6.52105 31.2659 6.38607C31.4008 6.25109 31.5647 6.18359 31.7576 6.18359H34.3609C34.573 6.18359 34.7465 6.25109 34.8815 6.38607C35.0165 6.52105 35.084 6.69461 35.084 6.90672V25.737C35.084 25.9298 35.0165 26.0938 34.8815 26.2287C34.7465 26.3637 34.573 26.4312 34.3609 26.4312H31.7576C31.5647 26.4312 31.4008 26.3637 31.2659 26.2287C31.1309 26.0938 31.0634 25.9298 31.0634 25.737V17.9851H22.5305V25.737C22.5305 25.9298 22.463 26.0938 22.328 26.2287C22.2123 26.3637 22.0484 26.4312 21.8362 26.4312H19.2041Z" fill="#464646"/>
<path d="M39.4087 26.4312C39.2159 26.4312 39.052 26.3637 38.917 26.2287C38.782 26.0938 38.7145 25.9202 38.7145 25.7081V6.90672C38.7145 6.69461 38.782 6.52105 38.917 6.38607C39.052 6.25109 39.2256 6.18359 39.4377 6.18359H42.0409C42.2531 6.18359 42.417 6.25109 42.5327 6.38607C42.6676 6.52105 42.7351 6.69461 42.7351 6.90672V20.1834L52.2515 6.6464C52.3287 6.54998 52.4347 6.45356 52.5697 6.35715C52.7047 6.24144 52.8782 6.18359 53.0904 6.18359H55.4911C55.684 6.18359 55.8479 6.25109 55.9829 6.38607C56.1179 6.52105 56.1854 6.69461 56.1854 6.90672V25.737C56.1854 25.9298 56.1179 26.0938 55.9829 26.2287C55.8479 26.3637 55.684 26.4312 55.4911 26.4312H52.8879C52.6758 26.4312 52.5022 26.3637 52.3672 26.2287C52.2322 26.0938 52.1647 25.9298 52.1647 25.737V12.7207L42.6773 25.9684C42.6194 26.0456 42.523 26.142 42.388 26.2577C42.2531 26.3734 42.0699 26.4312 41.8385 26.4312H39.4087Z" fill="#464646"/>
<path d="M60.5173 26.4312C60.3245 26.4312 60.1606 26.3637 60.0256 26.2287C59.8906 26.0938 59.8231 25.9298 59.8231 25.737V6.90672C59.8231 6.69461 59.8906 6.52105 60.0256 6.38607C60.1606 6.25109 60.3245 6.18359 60.5173 6.18359H72.3188C72.5309 6.18359 72.7045 6.25109 72.8395 6.38607C72.9745 6.52105 73.0419 6.69461 73.0419 6.90672V8.93149C73.0419 9.12432 72.9745 9.28823 72.8395 9.42321C72.7045 9.5582 72.5309 9.62569 72.3188 9.62569H63.8437V25.737C63.8437 25.9298 63.7762 26.0938 63.6413 26.2287C63.5256 26.3637 63.3617 26.4312 63.1495 26.4312H60.5173Z" fill="#464646"/>
<path d="M73.4171 26.4312C73.2628 26.4312 73.1182 26.3734 72.9832 26.2577C72.8675 26.142 72.8096 25.9973 72.8096 25.8238C72.8096 25.7467 72.8289 25.6599 72.8675 25.5635L79.8385 6.90672C79.8963 6.71389 80.0024 6.54998 80.1566 6.415C80.3302 6.26073 80.5616 6.18359 80.8508 6.18359H84.0037C84.2929 6.18359 84.5147 6.26073 84.669 6.415C84.8232 6.54998 84.9389 6.71389 85.0161 6.90672L91.987 25.5635C92.0063 25.6599 92.016 25.7467 92.016 25.8238C92.016 25.9973 91.9581 26.142 91.8424 26.2577C91.7267 26.3734 91.5917 26.4312 91.4375 26.4312H88.921C88.651 26.4312 88.4485 26.3734 88.3135 26.2577C88.1978 26.1227 88.1207 25.9973 88.0821 25.8816L86.7227 22.3528H78.1319L76.7724 25.8816C76.7338 25.9973 76.6471 26.1227 76.5121 26.2577C76.3964 26.3734 76.2035 26.4312 75.9336 26.4312H73.4171ZM79.1443 19.0264H85.7103L82.4128 10.0885L79.1443 19.0264Z" fill="#464646"/>
<path d="M175.87 26.4312C175.677 26.4312 175.513 26.3637 175.378 26.2287C175.243 26.0937 175.176 25.9298 175.176 25.737V6.90667C175.176 6.69455 175.243 6.521 175.378 6.38602C175.513 6.25103 175.677 6.18354 175.87 6.18354H183.622C185.126 6.18354 186.437 6.42458 187.556 6.90667C188.674 7.36947 189.542 8.08296 190.159 9.04713C190.776 9.99202 191.085 11.178 191.085 12.6049C191.085 14.0512 190.776 15.2468 190.159 16.1917C189.542 17.1173 188.674 17.8115 187.556 18.2743C186.437 18.7371 185.126 18.9685 183.622 18.9685H179.312V25.737C179.312 25.9298 179.245 26.0937 179.11 26.2287C178.994 26.3637 178.83 26.4312 178.618 26.4312H175.87ZM179.254 15.7578H183.477C184.596 15.7578 185.454 15.4974 186.052 14.9768C186.649 14.4369 186.948 13.6462 186.948 12.6049C186.948 11.6408 186.669 10.8694 186.109 10.2909C185.55 9.69313 184.673 9.39423 183.477 9.39423H179.254V15.7578Z" fill="#464646"/>
<path d="M194.069 26.4312C193.876 26.4312 193.712 26.3637 193.577 26.2287C193.442 26.0937 193.375 25.9298 193.375 25.737V6.90667C193.375 6.69455 193.442 6.521 193.577 6.38602C193.712 6.25103 193.876 6.18354 194.069 6.18354H206.796C207.008 6.18354 207.182 6.25103 207.317 6.38602C207.452 6.521 207.519 6.69455 207.519 6.90667V8.81573C207.519 9.00856 207.452 9.17247 207.317 9.30746C207.182 9.44244 207.008 9.50993 206.796 9.50993H197.28V14.6297H206.16C206.372 14.6297 206.546 14.6972 206.681 14.8322C206.815 14.9479 206.883 15.1118 206.883 15.3239V17.1173C206.883 17.3294 206.815 17.5029 206.681 17.6379C206.546 17.7536 206.372 17.8115 206.16 17.8115H197.28V23.1048H207.028C207.24 23.1048 207.413 23.1723 207.548 23.3072C207.683 23.4422 207.751 23.6158 207.751 23.8279V25.737C207.751 25.9298 207.683 26.0937 207.548 26.2287C207.413 26.3637 207.24 26.4312 207.028 26.4312H194.069Z" fill="#464646"/>
<path d="M225.86 30.4807C225.648 30.4807 225.474 30.4132 225.339 30.2782C225.224 30.1432 225.166 29.9793 225.166 29.7865V26.4312H211.195C211.002 26.4312 210.838 26.3637 210.703 26.2287C210.568 26.0937 210.501 25.9202 210.501 25.708V6.87774C210.501 6.66562 210.568 6.50172 210.703 6.38602C210.838 6.25103 211.002 6.18354 211.195 6.18354H213.827C214.039 6.18354 214.203 6.25103 214.319 6.38602C214.454 6.521 214.521 6.68491 214.521 6.87774V22.8155H223.054V6.87774C223.054 6.68491 223.122 6.521 223.257 6.38602C223.392 6.25103 223.556 6.18354 223.748 6.18354H226.352C226.564 6.18354 226.737 6.25103 226.872 6.38602C227.007 6.521 227.075 6.68491 227.075 6.87774V22.8155H228.463C228.675 22.8155 228.849 22.883 228.984 23.018C229.119 23.153 229.186 23.3169 229.186 23.5097V29.7865C229.186 29.9793 229.119 30.1432 228.984 30.2782C228.849 30.4132 228.675 30.4807 228.463 30.4807H225.86Z" fill="#464646"/>
<path d="M232.219 26.4312C232.026 26.4312 231.862 26.3637 231.727 26.2287C231.592 26.0937 231.525 25.9298 231.525 25.737V6.90667C231.525 6.69455 231.592 6.521 231.727 6.38602C231.862 6.25103 232.026 6.18354 232.219 6.18354H244.946C245.158 6.18354 245.331 6.25103 245.466 6.38602C245.601 6.521 245.669 6.69455 245.669 6.90667V8.81573C245.669 9.00856 245.601 9.17247 245.466 9.30746C245.331 9.44244 245.158 9.50993 244.946 9.50993H235.429V14.6297H244.309C244.522 14.6297 244.695 14.6972 244.83 14.8322C244.965 14.9479 245.033 15.1118 245.033 15.3239V17.1173C245.033 17.3294 244.965 17.5029 244.83 17.6379C244.695 17.7536 244.522 17.8115 244.309 17.8115H235.429V23.1048H245.177C245.389 23.1048 245.563 23.1723 245.698 23.3072C245.833 23.4422 245.9 23.6158 245.9 23.8279V25.737C245.9 25.9298 245.833 26.0937 245.698 26.2287C245.563 26.3637 245.389 26.4312 245.177 26.4312H232.219Z" fill="#464646"/>
<path d="M249.344 26.4312C249.152 26.4312 248.988 26.3733 248.853 26.2576C248.718 26.1226 248.65 25.9491 248.65 25.737V6.90667C248.65 6.69455 248.718 6.521 248.853 6.38602C248.988 6.25103 249.152 6.18354 249.344 6.18354H264.501C264.713 6.18354 264.887 6.25103 265.022 6.38602C265.157 6.521 265.224 6.69455 265.224 6.90667V25.737C265.224 25.9298 265.157 26.0937 265.022 26.2287C264.887 26.3637 264.713 26.4312 264.501 26.4312H261.898C261.705 26.4312 261.541 26.3637 261.406 26.2287C261.271 26.0937 261.204 25.9298 261.204 25.737V9.79919H252.671V25.737C252.671 25.9298 252.603 26.0937 252.468 26.2287C252.353 26.3637 252.189 26.4312 251.977 26.4312H249.344Z" fill="#464646"/>
<path d="M274.004 26.4312C273.811 26.4312 273.647 26.3637 273.512 26.2287C273.377 26.0937 273.309 25.9298 273.309 25.737V9.74134H267.958C267.765 9.74134 267.602 9.67384 267.467 9.53886C267.332 9.40388 267.264 9.23997 267.264 9.04713V6.90667C267.264 6.69455 267.332 6.521 267.467 6.38602C267.602 6.25103 267.765 6.18354 267.958 6.18354H282.71C282.922 6.18354 283.096 6.25103 283.231 6.38602C283.366 6.521 283.433 6.69455 283.433 6.90667V9.04713C283.433 9.23997 283.366 9.40388 283.231 9.53886C283.096 9.67384 282.922 9.74134 282.71 9.74134H277.388V25.737C277.388 25.9298 277.32 26.0937 277.185 26.2287C277.05 26.3637 276.877 26.4312 276.665 26.4312H274.004Z" fill="#464646"/>
<path d="M293.281 26.7204C291.565 26.7204 290.09 26.4408 288.856 25.8816C287.622 25.3031 286.657 24.4257 285.963 23.2494C285.269 22.0538 284.893 20.569 284.835 18.7949C284.816 17.9657 284.806 17.1462 284.806 16.3363C284.806 15.5264 284.816 14.6972 284.835 13.8487C284.893 12.0939 285.279 10.6284 285.992 9.45208C286.706 8.27579 287.68 7.38876 288.914 6.79097C290.167 6.19318 291.623 5.89429 293.281 5.89429C294.94 5.89429 296.396 6.19318 297.649 6.79097C298.902 7.38876 299.886 8.27579 300.599 9.45208C301.313 10.6284 301.699 12.0939 301.756 13.8487C301.795 14.6972 301.814 15.5264 301.814 16.3363C301.814 17.1462 301.795 17.9657 301.756 18.7949C301.699 20.569 301.323 22.0538 300.628 23.2494C299.934 24.4257 298.96 25.3031 297.707 25.8816C296.473 26.4408 294.998 26.7204 293.281 26.7204ZM293.281 23.394C294.535 23.394 295.557 23.0276 296.347 22.2949C297.138 21.5428 297.562 20.328 297.62 18.6503C297.659 17.8018 297.678 17.0208 297.678 16.3074C297.678 15.5746 297.659 14.7936 297.62 13.9644C297.582 12.846 297.369 11.9396 296.984 11.2454C296.617 10.532 296.116 10.0209 295.48 9.71241C294.843 9.38459 294.111 9.22068 293.281 9.22068C292.471 9.22068 291.748 9.38459 291.112 9.71241C290.476 10.0209 289.965 10.532 289.579 11.2454C289.213 11.9396 289.01 12.846 288.972 13.9644C288.952 14.7936 288.943 15.5746 288.943 16.3074C288.943 17.0208 288.952 17.8018 288.972 18.6503C289.029 20.328 289.454 21.5428 290.244 22.2949C291.035 23.0276 292.047 23.394 293.281 23.394Z" fill="#464646"/>
<path d="M305.439 26.4312C305.246 26.4312 305.082 26.3637 304.947 26.2287C304.812 26.0937 304.745 25.9298 304.745 25.737V6.90667C304.745 6.69455 304.812 6.521 304.947 6.38602C305.082 6.25103 305.246 6.18354 305.439 6.18354H313.827C315.389 6.18354 316.662 6.42458 317.645 6.90667C318.629 7.36947 319.352 8.01547 319.815 8.84466C320.297 9.67384 320.538 10.638 320.538 11.7372C320.538 12.4699 320.403 13.1159 320.133 13.6752C319.882 14.2151 319.564 14.6586 319.178 15.0057C318.812 15.3528 318.446 15.6228 318.079 15.8156C318.831 16.1627 319.497 16.7412 320.075 17.5511C320.654 18.361 320.943 19.3252 320.943 20.4437C320.943 21.6007 320.683 22.6323 320.162 23.5386C319.641 24.445 318.87 25.1585 317.848 25.6791C316.826 26.1805 315.563 26.4312 314.059 26.4312H305.439ZM308.765 23.3651H313.596C314.637 23.3651 315.428 23.0855 315.968 22.5263C316.508 21.9478 316.778 21.2536 316.778 20.4437C316.778 19.5952 316.498 18.8913 315.939 18.3321C315.399 17.7729 314.618 17.4933 313.596 17.4933H308.765V23.3651ZM308.765 14.4851H313.307C314.329 14.4851 315.09 14.244 315.592 13.7619C316.112 13.2606 316.373 12.6146 316.373 11.8239C316.373 11.014 316.112 10.3873 315.592 9.94381C315.09 9.48101 314.329 9.24961 313.307 9.24961H308.765V14.4851Z" fill="#464646"/>
</svg>
